<?xml version="1.0" encoding="utf-8"?>
<!-- Generator: Adobe Illustrator 26.1.0, SVG Export Plug-In . SVG Version: 6.00 Build 0)  -->
<svg version="1.1" id="Layer_1" xmlns="http://www.w3.org/2000/svg" xmlns:xlink="http://www.w3.org/1999/xlink" x="0px" y="0px"
	 viewBox="0 0 1000 1000" style="enable-background:new 0 0 1000 1000;" xml:space="preserve">
<style type="text/css">
	.st0{fill:#FFFFFF;stroke:#FCFBF4;stroke-width:6;stroke-miterlimit:10;}
	.st1{fill:none;stroke:#D4AF46;stroke-width:6;stroke-miterlimit:10;}
	.st2{fill:none;stroke:#D4AF37;stroke-width:5;stroke-miterlimit:10;}
</style>
<rect x="0.59" y="0.69" class="st0" width="997.92" height="997.92"/>
<g>
	<g>
		<circle class="st1" cx="500" cy="499.65" r="202.25"/>
		
			<ellipse transform="matrix(0.7071 -0.7071 0.7071 0.7071 -206.8605 499.898)" class="st2" cx="500" cy="499.65" rx="193.25" ry="193.25"/>
	</g>
	<g>
		<path d="M486.28,486.56l-54.05,80.09c13.81-9.65,26.87-14.48,39.18-14.48c11.16,0,26.21,3.9,45.16,11.69l25.23,10.49
			c7.35,3.01,12.35,4.52,15.01,4.52c4.87,0,10.67-4.91,17.4-14.74l4.12,2.52c-0.8,1.24-1.28,1.99-1.46,2.26l-8.77,12.48l-8.5,13.28
			c-0.18,0.35-0.8,1.24-1.86,2.66c-8.32-2.04-18.77-5.93-31.34-11.69c-17.44-7.88-30.99-13.28-40.64-16.2s-18.95-4.38-27.89-4.38
			c-9.47,0-17.53,2.12-24.17,6.38s-13.28,11.55-19.92,21.91l-3.98-2.79l27.36-41.3c-10.89-13.63-16.34-28.91-16.34-45.82
			c0-14.25,4.43-26.7,13.28-37.32c8.85-10.62,19.21-15.94,31.08-15.94c10.09,0,19.3,5,27.62,15.01l0.8-1.33l3.98-6.91
			c3.28-5.49,4.91-10.05,4.91-13.68c0-1.59-0.58-3.19-1.73-4.78c1.68-0.09,2.57-0.13,2.66-0.13l7.17-0.27c1.15,0,3.76-0.27,7.84-0.8
			l1.86-0.27c-2.04,2.66-5.89,8.37-11.55,17.13c-2.74,4.25-5.84,8.81-9.3,13.68l-2.12,3.05c0.8,1.06,1.24,1.68,1.33,1.86l7.7,10.76
			c12.93,17.8,27.71,26.7,44.36,26.7c10.45,0,19.86-5.18,28.22-15.54c8.37-10.36,12.55-22.05,12.55-35.06
			c0-20.63-14.56-30.95-43.7-30.95c-12.66,0-36.04,1.33-70.12,3.98l-38.52,3.05c-8.59,0.71-17.53,1.06-26.83,1.06
			c-16.82,0-28.29-2.08-34.4-6.24l10.23-37.32l4.65,1.2l-0.4,2.26c-1.15,5.14-1.73,8.9-1.73,11.29c0,4.34,1.9,7.37,5.71,9.1
			c3.81,1.73,10.49,2.59,20.05,2.59c14.61,0,36.12-1.15,64.55-3.45c32.05-2.57,54.45-3.85,67.2-3.85c37.54,0,56.31,12.8,56.31,38.38
			c0,15.32-5.53,29.84-16.6,43.56c-13.1,16.2-29.62,24.31-49.54,24.31c-10.01,0-18.64-2.12-25.9-6.38s-15.27-11.86-24.04-22.84
			L486.28,486.56z M482.16,481.25c-4.87-6.73-9.34-11.55-13.41-14.48s-8.37-4.38-12.88-4.38c-7.7,0-14.1,2.94-19.19,8.83
			c-5.09,5.89-7.64,13.35-7.64,22.38c0,12.4,6.06,25.81,18.19,40.24L482.16,481.25z"/>
	</g>
	<path d="M507.94,401.65l15.87-22c3.09-4.28,5.58-7.2,7.47-8.76c1.89-1.56,4.03-2.34,6.44-2.34c4.4,0,6.59,2.14,6.59,6.42
		c0,3.46-3.37,7.71-10.1,12.73l-24.31,18.34c-1.65,1.22-2.78,1.83-3.4,1.83c-0.96,0-1.44-0.44-1.44-1.32
		C505.05,405.93,506.01,404.3,507.94,401.65z"/>
</g>
<g>
</g>
<g>
</g>
<g>
</g>
<g>
</g>
<g>
</g>
<g>
</g>
</svg>
